<?xml version="1.0" encoding="UTF-8" standalone="no"?><!-- Generator: Gravit.io --><svg xmlns="http://www.w3.org/2000/svg" xmlns:xlink="http://www.w3.org/1999/xlink" style="isolation:isolate" viewBox="0 0 180 180" width="180pt" height="180pt"><defs><clipPath id="_clipPath_pedkB2BO9LJqqpfzYxiy2CNxBWzVm7YQ"><rect width="180" height="180"/></clipPath></defs><g clip-path="url(#_clipPath_pedkB2BO9LJqqpfzYxiy2CNxBWzVm7YQ)"><path d="M 39.207 35.457 L 139.793 35.457 C 145.886 35.457 150.833 40.403 150.833 46.497 L 150.833 147.083 C 150.833 153.176 145.886 158.123 139.793 158.123 L 39.207 158.123 C 33.114 158.123 28.167 153.176 28.167 147.083 L 28.167 46.497 C 28.167 40.403 33.114 35.457 39.207 35.457 Z" style="fill:none;stroke:#F45884;stroke-width:5;stroke-linecap:square;stroke-linejoin:round;stroke-miterlimit:2;"/><polygon points="72.681,35.362,45.563,35.362,59.122,11.877" fill="none" vector-effect="non-scaling-stroke" stroke-width="5" stroke="rgb(244,88,132)" stroke-linejoin="miter" stroke-linecap="square" stroke-miterlimit="3"/><path d="M 45.978 46.139 L 133.567 46.139 C 137.502 46.139 140.697 49.333 140.697 53.268 L 140.697 140.857 C 140.697 144.792 137.502 147.987 133.567 147.987 L 45.978 147.987 C 42.043 147.987 38.849 144.792 38.849 140.857 L 38.849 53.268 C 38.849 49.333 42.043 46.139 45.978 46.139 Z" style="fill:none;stroke:#626262;stroke-width:4;stroke-linecap:square;stroke-miterlimit:2;"/><polygon points="136.388,35.362,109.27,35.362,122.829,11.877" fill="none" vector-effect="non-scaling-stroke" stroke-width="5" stroke="rgb(244,88,132)" stroke-linejoin="miter" stroke-linecap="square" stroke-miterlimit="3"/><polygon points="120.167,100.314,71.188,128.592,71.188,72.036" fill="rgb(98,98,98)"/></g></svg>