<?xml version="1.0" encoding="UTF-8" standalone="no"?><!-- Generator: Gravit.io --><svg xmlns="http://www.w3.org/2000/svg" xmlns:xlink="http://www.w3.org/1999/xlink" style="isolation:isolate" viewBox="0 0 200 220" width="200pt" height="220pt"><defs><clipPath id="_clipPath_Ixr12pS3Awg1m9RteSoR6TXB9qwrwNcm"><rect width="200" height="220"/></clipPath></defs><g clip-path="url(#_clipPath_Ixr12pS3Awg1m9RteSoR6TXB9qwrwNcm)"><path d="M 49.707 60.457 L 150.293 60.457 C 156.386 60.457 161.333 65.403 161.333 71.497 L 161.333 172.083 C 161.333 178.176 156.386 183.123 150.293 183.123 L 49.707 183.123 C 43.614 183.123 38.667 178.176 38.667 172.083 L 38.667 71.497 C 38.667 65.403 43.614 60.457 49.707 60.457 Z" style="fill:none;stroke:#F45884;stroke-width:5;stroke-linecap:square;stroke-linejoin:round;stroke-miterlimit:2;"/><polygon points="83.181,60.362,56.063,60.362,69.622,36.877" fill="none" vector-effect="non-scaling-stroke" stroke-width="5" stroke="rgb(244,88,132)" stroke-linejoin="miter" stroke-linecap="square" stroke-miterlimit="3"/><path d="M 56.478 71.139 L 144.067 71.139 C 148.002 71.139 151.197 74.333 151.197 78.268 L 151.197 165.857 C 151.197 169.792 148.002 172.987 144.067 172.987 L 56.478 172.987 C 52.543 172.987 49.349 169.792 49.349 165.857 L 49.349 78.268 C 49.349 74.333 52.543 71.139 56.478 71.139 Z" style="fill:none;stroke:#626262;stroke-width:4;stroke-linecap:square;stroke-miterlimit:2;"/><polygon points="146.888,60.362,119.77,60.362,133.329,36.877" fill="none" vector-effect="non-scaling-stroke" stroke-width="5" stroke="rgb(244,88,132)" stroke-linejoin="miter" stroke-linecap="square" stroke-miterlimit="3"/><polygon points="130.667,125.314,81.688,153.592,81.688,97.036" fill="rgb(98,98,98)"/></g></svg>