<svg viewBox="0 0 100 100" xmlns="http://www.w3.org/2000/svg" fill-rule="evenodd" clip-rule="evenodd" stroke-linejoin="round" stroke-miterlimit="1.4" class="PlayerSeekForwardButton-icon"><path d="M81.7 29A38 38 0 1077 76.7a4 4 0 015.7 0l2.8 2.8a4 4 0 010 5.7A50 50 0 1192 22.8l2-1.2a4 4 0 016 3.5v18.2a4 4 0 01-6 3.5L78.3 38a4 4 0 01-.2-7l3.7-2.1zM37 66a2 2 0 01-2 2h-4a2 2 0 01-2-2V40h-2a2 2 0 01-2-2v-4c0-1.1.9-2 2-2h8a2 2 0 012 2v32zm32 0a2 2 0 01-2 2H47a2 2 0 01-2-2V34c0-1.1.9-2 2-2h20a2 2 0 012 2v32zm-8-26h-8v20h8V40z"/></svg>