<svg viewBox="0 0 100 100" xmlns="http://www.w3.org/2000/svg" fill-rule="evenodd" clip-rule="evenodd" stroke-linejoin="round" stroke-miterlimit="1.4" class="PlayerOptionButton-icon"><path d="M56.5 3.2A4 4 0 0 0 53 0H47a4 4 0 0 0-3.6 3L41 14a4 4 0 0 1-2.6 2.9c-1.3.4-2.5 1-3.7 1.5a4 4 0 0 1-3.9-.2l-9.3-5.8a4 4 0 0 0-4.8.4 52.2 52.2 0 0 0-4 4 4 4 0 0 0-.4 4.8l5.8 9.3a4 4 0 0 1 .2 4c-.6 1.1-1 2.3-1.5 3.6a4 4 0 0 1-2.9 2.6L3.2 43.5A4 4 0 0 0 0 47V53a4 4 0 0 0 3 3.6L14 59a4 4 0 0 1 2.9 2.6c.4 1.3 1 2.5 1.5 3.7a4 4 0 0 1-.2 3.9l-5.8 9.3a4 4 0 0 0 .4 4.8c1.2 1.4 2.6 2.8 4 4a4 4 0 0 0 4.8.4l9.3-5.8a4 4 0 0 1 4-.2c1.1.6 2.3 1 3.6 1.5a4 4 0 0 1 2.6 3l2.5 10.6A4 4 0 0 0 47 100H53a4 4 0 0 0 3.6-3L59 86a4 4 0 0 1 2.6-2.9c1.3-.4 2.5-1 3.7-1.5a4 4 0 0 1 3.9.2l9.3 5.8a4 4 0 0 0 4.8-.4c1.4-1.2 2.8-2.6 4-4a4 4 0 0 0 .4-4.8L82 69.2a4 4 0 0 1-.2-4c.6-1.1 1-2.3 1.5-3.6a4 4 0 0 1 3-2.6l10.6-2.5A4 4 0 0 0 100 53V47a4 4 0 0 0-3-3.6L86 41a4 4 0 0 1-2.9-2.6c-.4-1.3-1-2.5-1.5-3.7a4 4 0 0 1 .2-3.9l5.8-9.3a4 4 0 0 0-.4-4.8 52.2 52.2 0 0 0-4-4 4 4 0 0 0-4.8-.4L69.2 18a4 4 0 0 1-4 .2c-1.1-.6-2.3-1-3.6-1.5a4 4 0 0 1-2.6-2.9L56.5 3.2zm-6.5 27a19.9 19.9 0 0 1 0 39.7 19.9 19.9 0 1 1 0-39.7z"></path></svg>
